<svg width="100" height="26" viewBox="0 0 100 26" fill="none" xmlns="http://www.w3.org/2000/svg">
<path d="M14.8694 12.3381C14.8802 11.5052 15.103 10.6886 15.517 9.96422C15.931 9.23984 16.5229 8.63122 17.2374 8.19499C16.7835 7.55123 16.1846 7.02144 15.4884 6.64769C14.7922 6.27395 14.0178 6.06656 13.2268 6.04198C11.5394 5.8661 9.90352 7.04464 9.04364 7.04464C8.16712 7.04464 6.8432 6.05944 5.41757 6.08857C4.49542 6.11815 3.59672 6.38443 2.80903 6.86145C2.02133 7.33848 1.37151 8.00998 0.922865 8.81054C-1.02055 12.1517 0.429061 17.0621 2.29069 19.7629C3.22211 21.0854 4.31066 22.5626 5.73502 22.5102C7.12883 22.4528 7.64939 21.6276 9.33185 21.6276C10.9987 21.6276 11.4871 22.5102 12.9403 22.4769C14.436 22.4528 15.3783 21.1485 16.277 19.8135C16.9462 18.8712 17.4612 17.8298 17.8028 16.7277C16.9339 16.3628 16.1924 15.7519 15.6707 14.9713C15.1491 14.1907 14.8704 13.2749 14.8694 12.3381Z" fill="black"/>
<path d="M12.1244 4.26578C12.9399 3.29368 13.3417 2.04421 13.2444 0.782712C11.9985 0.912651 10.8477 1.50393 10.0212 2.43873C9.61709 2.89541 9.30759 3.42669 9.11039 4.00221C8.91319 4.57774 8.83215 5.18621 8.87191 5.79285C9.49507 5.79922 10.1116 5.6651 10.675 5.40059C11.2383 5.13607 11.734 4.74806 12.1244 4.26578Z" fill="black"/>
<path d="M32.4873 19.1622H27.7308L26.5886 22.5114H24.5739L29.0792 10.1202H31.1723L35.6775 22.5114H33.6285L32.4873 19.1622ZM28.2234 17.6167H31.9937L30.1351 12.1812H30.0831L28.2234 17.6167Z" fill="black"/>
<path d="M45.4073 17.9948C45.4073 20.8022 43.8941 22.6059 41.6106 22.6059C41.0321 22.6359 40.4568 22.5036 39.9506 22.2241C39.4443 21.9446 39.0276 21.5291 38.7481 21.0253H38.7049V25.5H36.8374V13.4772H38.645V14.9798H38.6794C38.9718 14.4785 39.3955 14.0652 39.9056 13.7839C40.4158 13.5027 40.9931 13.364 41.5762 13.3827C43.8852 13.3827 45.4073 15.1952 45.4073 17.9948ZM43.4878 17.9948C43.4878 16.1658 42.536 14.9633 41.0836 14.9633C39.6568 14.9633 38.697 16.1911 38.697 17.9948C38.697 19.8151 39.6568 21.0341 41.0836 21.0341C42.536 21.0341 43.4878 19.8404 43.4878 17.9948Z" fill="black"/>
<path d="M55.4207 17.9948C55.4207 20.8022 53.9075 22.6059 51.624 22.6059C51.0455 22.6359 50.4702 22.5036 49.964 22.2241C49.4577 21.9446 49.041 21.5291 48.7615 21.0253H48.7182V25.5H46.8508V13.4772H48.6584V14.9798H48.6927C48.9851 14.4785 49.4089 14.0652 49.919 13.7839C50.4291 13.5027 51.0064 13.3641 51.5896 13.3827C53.8986 13.3827 55.4207 15.1952 55.4207 17.9948ZM53.5012 17.9948C53.5012 16.1658 52.5493 14.9633 51.097 14.9633C49.6701 14.9633 48.7104 16.1911 48.7104 17.9948C48.7104 19.8151 49.6701 21.0341 51.097 21.0341C52.5493 21.0341 53.5012 19.8404 53.5012 17.9948Z" fill="black"/>
<path d="M62.0387 19.0589C62.1771 20.2877 63.3792 21.0945 65.0219 21.0945C66.5959 21.0945 67.7284 20.2876 67.7284 19.1797C67.7284 18.2179 67.0454 17.642 65.4282 17.2474L63.811 16.8605C61.5196 16.3109 60.4558 15.2468 60.4558 13.5201C60.4558 11.3821 62.3321 9.91363 64.9964 9.91363C67.6332 9.91363 69.4408 11.3821 69.5016 13.5201H67.6165C67.5036 12.2835 66.4742 11.5371 64.9699 11.5371C63.4655 11.5371 62.4361 12.2923 62.4361 13.3915C62.4361 14.2675 63.0936 14.783 64.702 15.1776L66.0768 15.5128C68.637 16.114 69.7008 17.1353 69.7008 18.9477C69.7008 21.2659 67.8412 22.7179 64.8835 22.7179C62.1162 22.7179 60.2478 21.3 60.127 19.0588L62.0387 19.0589Z" fill="black"/>
<path d="M73.7311 11.3393V13.4772H75.4612V14.9457H73.7311V19.9262C73.7311 20.6999 74.0775 21.0604 74.838 21.0604C75.0434 21.0569 75.2485 21.0425 75.4523 21.0175V22.4772C75.1104 22.5407 74.7628 22.5694 74.4151 22.563C72.5731 22.563 71.8548 21.876 71.8548 20.1239V14.9457H70.532V13.4772H71.8548V11.3393H73.7311Z" fill="black"/>
<path d="M76.4631 17.9948C76.4631 15.1523 78.149 13.3662 80.778 13.3662C83.4158 13.3662 85.0938 15.1523 85.0938 17.9948C85.0938 20.8451 83.4246 22.6234 80.778 22.6234C78.1323 22.6234 76.4631 20.8451 76.4631 17.9948ZM83.191 17.9948C83.191 16.0449 82.2912 14.8941 80.778 14.8941C79.2648 14.8941 78.3659 16.0537 78.3659 17.9948C78.3659 19.9525 79.2648 21.0945 80.778 21.0945C82.2912 21.0945 83.191 19.9525 83.191 17.9948Z" fill="black"/>
<path d="M86.6335 13.4772H88.4146V15.0149H88.4578C88.5783 14.5347 88.8616 14.1103 89.2601 13.813C89.6586 13.5158 90.1481 13.3638 90.6461 13.3827C90.8613 13.382 91.0759 13.4052 91.2859 13.4519V15.1864C91.0142 15.104 90.7308 15.0661 90.4469 15.0744C90.1756 15.0634 89.9051 15.1109 89.654 15.2136C89.403 15.3163 89.1773 15.4717 88.9924 15.6691C88.8075 15.8666 88.6679 16.1014 88.583 16.3575C88.4982 16.6137 88.4702 16.885 88.5009 17.1529V22.5114H86.6335L86.6335 13.4772Z" fill="black"/>
<path d="M99.896 19.8579C99.6448 21.4979 98.0364 22.6234 95.9786 22.6234C93.3319 22.6234 91.6892 20.8626 91.6892 18.0377C91.6892 15.204 93.3408 13.3662 95.9001 13.3662C98.4171 13.3662 100 15.0831 100 17.8223V18.4577H93.5743V18.5697C93.5447 18.9022 93.5866 19.2371 93.6973 19.5523C93.808 19.8674 93.985 20.1556 94.2165 20.3976C94.448 20.6397 94.7286 20.83 95.0399 20.956C95.3511 21.0821 95.6858 21.1409 96.0217 21.1286C96.463 21.1697 96.9059 21.0682 97.2844 20.8392C97.663 20.6103 97.957 20.2661 98.1227 19.8579L99.896 19.8579ZM93.5832 17.1616H98.1316C98.1483 16.8627 98.1027 16.5635 97.9975 16.2829C97.8923 16.0023 97.7299 15.7463 97.5203 15.531C97.3108 15.3157 97.0587 15.1458 96.7799 15.0318C96.501 14.9178 96.2015 14.8623 95.9001 14.8688C95.5959 14.867 95.2945 14.925 95.0131 15.0395C94.7317 15.154 94.4759 15.3227 94.2605 15.5358C94.0451 15.749 93.8743 16.0024 93.7581 16.2815C93.6418 16.5605 93.5824 16.8597 93.5832 17.1616Z" fill="black"/>
<path d="M27.9894 0.793363C28.3809 0.765465 28.7738 0.824197 29.1397 0.965324C29.5055 1.10645 29.8353 1.32645 30.1052 1.60947C30.3751 1.89248 30.5784 2.23144 30.7004 2.60191C30.8224 2.97238 30.8601 3.36511 30.8107 3.75179C30.8107 5.65392 29.7754 6.74729 27.9894 6.74729H25.8236V0.793363H27.9894ZM26.7549 5.90528H27.8854C28.1651 5.92189 28.4451 5.87634 28.7049 5.77195C28.9647 5.66756 29.1978 5.50696 29.3872 5.30184C29.5766 5.09672 29.7176 4.85224 29.7998 4.5862C29.8821 4.32016 29.9036 4.03925 29.8627 3.76392C29.9006 3.48968 29.877 3.21052 29.7934 2.94643C29.7099 2.68234 29.5686 2.43986 29.3796 2.23637C29.1906 2.03288 28.9587 1.87342 28.7003 1.76941C28.442 1.6654 28.1637 1.61941 27.8854 1.63475H26.7549V5.90528Z" fill="black"/>
<path d="M31.8627 4.49867C31.8342 4.20339 31.8682 3.90547 31.9625 3.62401C32.0568 3.34255 32.2093 3.08377 32.4102 2.86426C32.6111 2.64476 32.8561 2.46937 33.1292 2.34936C33.4024 2.22934 33.6978 2.16735 33.9965 2.16735C34.2952 2.16735 34.5907 2.22934 34.8638 2.34936C35.137 2.46937 35.3819 2.64476 35.5828 2.86426C35.7837 3.08377 35.9362 3.34255 36.0305 3.62401C36.1248 3.90547 36.1589 4.20339 36.1304 4.49867C36.1594 4.79425 36.1258 5.09259 36.0317 5.3745C35.9377 5.65641 35.7853 5.91567 35.5843 6.13561C35.3833 6.35554 35.1383 6.5313 34.8648 6.65157C34.5914 6.77185 34.2956 6.83398 33.9965 6.83398C33.6975 6.83398 33.4017 6.77185 33.1282 6.65157C32.8548 6.5313 32.6097 6.35554 32.4087 6.13561C32.2078 5.91567 32.0554 5.65641 31.9613 5.3745C31.8673 5.09259 31.8337 4.79425 31.8627 4.49867ZM35.2119 4.49867C35.2119 3.52471 34.7713 2.95515 33.998 2.95515C33.2218 2.95515 32.7851 3.52471 32.7851 4.49868C32.7851 5.48044 33.2218 6.04562 33.998 6.04562C34.7713 6.04561 35.2119 5.47653 35.2119 4.49867Z" fill="black"/>
<path d="M41.8034 6.74721H40.8771L39.9419 3.43797H39.8712L38.9399 6.74721H38.0224L36.7751 2.25402H37.6809L38.4915 5.68258H38.5582L39.4885 2.25402H40.3452L41.2755 5.68258H41.3461L42.1528 2.25402H43.0458L41.8034 6.74721Z" fill="black"/>
<path d="M44.0948 2.25402H44.9544V2.9678H45.0212C45.1344 2.71143 45.3253 2.49653 45.5673 2.35303C45.8094 2.20954 46.0905 2.14461 46.3715 2.16728C46.5916 2.15085 46.8127 2.18381 47.0183 2.26373C47.2239 2.34366 47.4087 2.46849 47.5591 2.62899C47.7095 2.78948 47.8217 2.98153 47.8872 3.19089C47.9527 3.40026 47.9699 3.62158 47.9376 3.83846V6.74716H47.0446V4.06114C47.0446 3.33907 46.7287 2.97998 46.0682 2.97998C45.9187 2.97307 45.7695 2.99833 45.6308 3.05404C45.4921 3.10975 45.3671 3.19459 45.2645 3.30274C45.1619 3.41089 45.084 3.5398 45.0362 3.68062C44.9885 3.82145 44.972 3.97086 44.9878 4.11862V6.74721H44.0948L44.0948 2.25402Z" fill="black"/>
<path d="M49.3605 0.5H50.2535V6.7472H49.3605V0.5Z" fill="black"/>
<path d="M51.4949 4.49867C51.4665 4.20337 51.5005 3.90543 51.5948 3.62396C51.6892 3.34249 51.8417 3.08371 52.0426 2.86419C52.2436 2.64468 52.4885 2.46929 52.7617 2.34928C53.0349 2.22926 53.3303 2.16726 53.629 2.16726C53.9278 2.16726 54.2232 2.22926 54.4964 2.34928C54.7696 2.46929 55.0145 2.64468 55.2154 2.86419C55.4164 3.08371 55.5689 3.34249 55.6632 3.62396C55.7575 3.90543 55.7916 4.20337 55.7631 4.49867C55.7921 4.79426 55.7585 5.0926 55.6644 5.37451C55.5703 5.65643 55.4179 5.91568 55.2169 6.13561C55.0159 6.35554 54.7708 6.53129 54.4973 6.65155C54.2239 6.77182 53.9281 6.83395 53.629 6.83395C53.3299 6.83395 53.0342 6.77182 52.7607 6.65155C52.4873 6.53129 52.2422 6.35554 52.0412 6.13561C51.8402 5.91568 51.6878 5.65643 51.5937 5.37451C51.4996 5.0926 51.466 4.79426 51.4949 4.49867ZM54.8441 4.49867C54.8441 3.52471 54.4035 2.95515 53.6303 2.95515C52.854 2.95515 52.4174 3.52471 52.4174 4.49868C52.4174 5.48044 52.8541 6.04562 53.6303 6.04562C54.4035 6.04561 54.8441 5.47653 54.8441 4.49867Z" fill="black"/>
<path d="M56.7033 5.47653C56.7033 4.66773 57.3097 4.20147 58.3862 4.1352L59.6119 4.06504V3.67721C59.6119 3.20265 59.2959 2.93468 58.6855 2.93468C58.187 2.93468 57.8416 3.11642 57.7425 3.43409H56.8779C56.9692 2.66232 57.7003 2.1673 58.7267 2.1673C59.8611 2.1673 60.501 2.72809 60.501 3.67721V6.74722H59.6413V6.11577H59.5707C59.4273 6.34228 59.2259 6.52693 58.9871 6.65087C58.7483 6.77481 58.4807 6.8336 58.2115 6.82125C58.0216 6.84087 57.8296 6.82074 57.648 6.76217C57.4663 6.7036 57.2991 6.60788 57.157 6.48118C57.0148 6.35449 56.9011 6.19963 56.8229 6.02659C56.7448 5.85355 56.704 5.66617 56.7033 5.47653ZM59.6119 5.09259V4.71695L58.5069 4.78711C57.8838 4.82852 57.6012 5.039 57.6012 5.43511C57.6012 5.8395 57.9544 6.07483 58.4402 6.07483C58.5826 6.08914 58.7263 6.07487 58.863 6.03287C58.9997 5.99087 59.1264 5.922 59.2358 5.83036C59.3451 5.73872 59.4347 5.62618 59.4993 5.49943C59.5639 5.37269 59.6022 5.23433 59.6119 5.09259Z" fill="black"/>
<path d="M61.6746 4.49867C61.6746 3.0789 62.4096 2.17948 63.5529 2.17948C63.8356 2.16654 64.1163 2.2338 64.362 2.37339C64.6077 2.51298 64.8084 2.71914 64.9404 2.96777H65.0072V0.5H65.9002V6.7472H65.0445V6.0373H64.9738C64.8315 6.28426 64.6239 6.48785 64.3734 6.62604C64.123 6.76422 63.8392 6.83173 63.5529 6.82125C62.4018 6.8213 61.6746 5.92185 61.6746 4.49867ZM62.5971 4.49867C62.5971 5.45168 63.0495 6.02515 63.8061 6.02515C64.5587 6.02515 65.0239 5.44341 65.0239 4.50257C65.0239 3.56612 64.5538 2.97609 63.8061 2.97609C63.0543 2.97609 62.5971 3.55345 62.5971 4.49867Z" fill="black"/>
<path d="M69.5948 4.49867C69.5664 4.20339 69.6004 3.90547 69.6947 3.62401C69.789 3.34255 69.9415 3.08377 70.1424 2.86426C70.3433 2.64476 70.5882 2.46937 70.8614 2.34936C71.1346 2.22934 71.43 2.16735 71.7287 2.16735C72.0274 2.16735 72.3228 2.22934 72.596 2.34936C72.8692 2.46937 73.1141 2.64476 73.315 2.86426C73.5159 3.08377 73.6684 3.34255 73.7627 3.62401C73.857 3.90547 73.891 4.20339 73.8626 4.49867C73.8916 4.79425 73.858 5.09259 73.7639 5.3745C73.6699 5.65641 73.5175 5.91567 73.3165 6.13561C73.1155 6.35554 72.8704 6.5313 72.597 6.65157C72.3235 6.77185 72.0278 6.83398 71.7287 6.83398C71.4296 6.83398 71.1339 6.77185 70.8604 6.65157C70.587 6.5313 70.3419 6.35554 70.1409 6.13561C69.94 5.91567 69.7875 5.65641 69.6935 5.3745C69.5994 5.09259 69.5658 4.79425 69.5948 4.49867ZM72.9441 4.49867C72.9441 3.52471 72.5034 2.95515 71.7302 2.95515C70.954 2.95515 70.5173 3.52471 70.5173 4.49868C70.5173 5.48044 70.954 6.04562 71.7302 6.04562C72.5035 6.04561 72.9441 5.47653 72.9441 4.49867Z" fill="black"/>
<path d="M75.0608 2.25402H75.9204V2.9678H75.9871C76.1003 2.71143 76.2913 2.49653 76.5333 2.35303C76.7754 2.20954 77.0565 2.14461 77.3374 2.16728C77.5576 2.15085 77.7787 2.18381 77.9843 2.26373C78.1899 2.34366 78.3747 2.46849 78.5251 2.62899C78.6755 2.78948 78.7877 2.98153 78.8532 3.19089C78.9187 3.40026 78.9359 3.62158 78.9036 3.83846V6.74716H78.0106V4.06114C78.0106 3.33907 77.6946 2.97998 77.0342 2.97998C76.8847 2.97307 76.7355 2.99833 76.5968 3.05404C76.458 3.10975 76.3331 3.19459 76.2305 3.30274C76.1278 3.41089 76.05 3.5398 76.0022 3.68062C75.9545 3.82145 75.9379 3.97086 75.9538 4.11862V6.74721H75.0608V2.25402Z" fill="black"/>
<path d="M83.9496 1.13535V2.27448H84.9299V3.0214H83.9496V5.33182C83.9496 5.80248 84.1448 6.00858 84.5894 6.00858C84.7032 6.00822 84.8169 6.00138 84.9299 5.98811V6.72674C84.7695 6.75523 84.6071 6.77039 84.4441 6.77205C83.4511 6.77205 83.0556 6.42514 83.0556 5.55886V3.02136H82.3373V2.27444H83.0556V1.13535H83.9496Z" fill="black"/>
<path d="M86.1497 0.5H87.0348V2.97608H87.1055C87.2242 2.71732 87.4204 2.5012 87.6672 2.35716C87.9141 2.21313 88.1997 2.14819 88.4852 2.17119C88.7042 2.15935 88.9231 2.19566 89.1264 2.27753C89.3297 2.35939 89.5122 2.48479 89.6611 2.64478C89.8099 2.80477 89.9214 2.99541 89.9875 3.2031C90.0536 3.41078 90.0727 3.63039 90.0435 3.84626V6.74721H89.1496V4.06502C89.1496 3.34734 88.813 2.98387 88.182 2.98387C88.0285 2.97137 87.8742 2.99232 87.7297 3.04526C87.5852 3.0982 87.4541 3.18184 87.3456 3.29034C87.2371 3.39885 87.1537 3.52958 87.1014 3.67341C87.0491 3.81724 87.0291 3.97067 87.0427 4.123V6.74719H86.1497L86.1497 0.5Z" fill="black"/>
<path d="M95.2504 5.53402C95.1291 5.94467 94.8662 6.29988 94.5078 6.53751C94.1494 6.77515 93.7182 6.88007 93.2897 6.83393C92.9916 6.84174 92.6954 6.78504 92.4216 6.66777C92.1477 6.5505 91.9029 6.37545 91.704 6.1548C91.5051 5.93414 91.357 5.67314 91.2699 5.38994C91.1828 5.10673 91.1588 4.80809 91.1995 4.51475C91.1598 4.2205 91.1843 3.92122 91.2712 3.63716C91.3581 3.3531 91.5054 3.0909 91.7033 2.86831C91.9011 2.64572 92.1448 2.46794 92.4178 2.34699C92.6908 2.22604 92.9869 2.16476 93.2858 2.1673C94.5448 2.1673 95.3044 3.02144 95.3044 4.43238V4.7418H92.1092V4.7915C92.0952 4.95638 92.1161 5.12235 92.1705 5.27877C92.2249 5.43518 92.3116 5.57857 92.425 5.69977C92.5385 5.82096 92.6762 5.91727 92.8293 5.98253C92.9825 6.04778 93.1476 6.08054 93.3143 6.0787C93.5279 6.10417 93.7443 6.06598 93.936 5.96898C94.1277 5.87198 94.286 5.72057 94.3908 5.53399L95.2504 5.53402ZM92.1092 4.08599H94.3947C94.4059 3.93518 94.3853 3.78371 94.3341 3.6413C94.2829 3.49889 94.2022 3.3687 94.0974 3.25908C93.9925 3.14946 93.8656 3.06284 93.725 3.00479C93.5844 2.94674 93.4331 2.91854 93.2809 2.92201C93.1264 2.92008 92.9732 2.94888 92.8301 3.0067C92.687 3.06452 92.5571 3.15019 92.4479 3.25867C92.3387 3.36715 92.2525 3.49623 92.1943 3.63832C92.1361 3.78041 92.1072 3.93262 92.1092 4.08599Z" fill="black"/>
</svg>
