<svg width="118" height="28" viewBox="0 0 118 28" fill="none" xmlns="http://www.w3.org/2000/svg">
<path d="M10.7923 13.4279L0.131293 24.6411C0.132295 24.643 0.132294 24.645 0.133296 24.647C0.459725 25.8656 1.5822 26.7616 2.91396 26.7616C3.44666 26.7616 3.94632 26.6188 4.37488 26.3687L4.40892 26.3488L16.4087 19.487L10.7923 13.4279Z" fill="#EB4335"/>
<path d="M21.5788 11.5187L21.5688 11.5118L16.3879 8.53483L10.5513 13.682L16.408 19.4851L21.5618 16.5389C22.4649 16.0556 23.0777 15.1119 23.0777 14.0233C23.0777 12.9427 22.473 12.003 21.5788 11.5187Z" fill="#FABC13"/>
<path d="M0.131637 3.35883C0.0675527 3.59302 0.0335083 3.83812 0.0335083 4.09314V23.9068C0.0335083 24.1618 0.0662076 24.4079 0.131293 24.6411L11.1592 13.7147L0.131637 3.35883Z" fill="#547DBF"/>
<path d="M10.8704 13.9995L16.3887 8.53282L4.40192 1.64612C3.96634 1.38713 3.45867 1.23828 2.91396 1.23828C1.5822 1.23828 0.458724 2.13633 0.131293 3.35589L0.131637 3.35883L10.8704 13.9995Z" fill="#30A851"/>
<path d="M60.2075 15.2717C57.8524 15.2717 55.9328 17.0459 55.9328 19.492C55.9328 21.9222 57.8524 23.7123 60.2075 23.7123C62.5626 23.7123 64.4821 21.9222 64.4821 19.492C64.4821 17.0459 62.5626 15.2717 60.2075 15.2717ZM60.2075 22.0502C58.9168 22.0502 57.8033 20.9953 57.8033 19.492C57.8033 17.9727 58.9168 16.9338 60.2075 16.9338C61.4982 16.9338 62.6106 17.9727 62.6106 19.492C62.6106 20.9944 61.4982 22.0502 60.2075 22.0502ZM50.8812 15.2717C48.5261 15.2717 46.6066 17.0459 46.6066 19.492C46.6066 21.9222 48.5261 23.7123 50.8812 23.7123C53.2363 23.7123 55.1558 21.9222 55.1558 19.492C55.1568 17.0459 53.2363 15.2717 50.8812 15.2717ZM50.8812 22.0502C49.5905 22.0502 48.478 20.9953 48.478 19.492C48.478 17.9727 49.5915 16.9338 50.8812 16.9338C52.1719 16.9338 53.2844 17.9727 53.2844 19.492C53.2854 20.9944 52.1719 22.0502 50.8812 22.0502ZM39.7886 18.3568H44.1123C43.9831 19.364 43.6447 20.0993 43.128 20.6113C42.4992 21.2345 41.5149 21.9222 39.7886 21.9222C37.1271 21.9222 35.0463 19.7956 35.0463 17.1581C35.0463 14.5205 37.1271 12.3939 39.7886 12.3939C41.2245 12.3939 42.2729 12.9536 43.0469 13.673L44.3216 12.4098C43.2411 11.3867 41.8052 10.6028 39.7886 10.6028C36.1428 10.6028 33.0778 13.544 33.0778 17.1571C33.0778 20.7701 36.1428 23.7113 39.7886 23.7113C41.7562 23.7113 43.2411 23.0723 44.4027 21.8726C45.5962 20.6897 45.9677 19.0266 45.9677 17.684C45.9677 17.2682 45.9357 16.8842 45.8706 16.5646H39.7886V18.3568ZM85.1563 17.9569C84.8018 17.0132 83.7204 15.2707 81.5105 15.2707C79.3166 15.2707 77.4942 16.9814 77.4942 19.491C77.4942 21.8567 79.3006 23.7113 81.7208 23.7113C83.6724 23.7113 84.8018 22.5285 85.2695 21.8408L83.8175 20.8812C83.3339 21.5848 82.672 22.0482 81.7208 22.0482C80.7685 22.0482 80.0916 21.6165 79.6561 20.7691L85.3506 18.4352L85.1563 17.9569ZM79.3487 19.364C79.3006 17.7336 80.6233 16.902 81.5746 16.902C82.3166 16.902 82.9454 17.2692 83.1557 17.7971L79.3487 19.364ZM74.7186 23.4563H76.59V11.0513H74.7186V23.4563ZM71.6535 16.2144H71.5895C71.1699 15.7192 70.3638 15.2707 69.3475 15.2707C67.2177 15.2707 65.2661 17.1253 65.2661 19.5069C65.2661 21.8726 67.2177 23.7113 69.3475 23.7113C70.3638 23.7113 71.1699 23.2638 71.5895 22.7518H71.6535V23.3591C71.6535 24.9736 70.7824 25.8369 69.3785 25.8369C68.233 25.8369 67.5231 25.0212 67.2327 24.3345L65.6036 25.0063C66.0712 26.1256 67.3138 27.5 69.3785 27.5C71.5724 27.5 73.4279 26.2209 73.4279 23.104V15.5267H71.6535V16.2144ZM69.5087 22.0502C68.218 22.0502 67.1376 20.9795 67.1376 19.5079C67.1376 18.0214 68.218 16.9338 69.5087 16.9338C70.7834 16.9338 71.7827 18.0204 71.7827 19.5079C71.7827 20.9785 70.7834 22.0502 69.5087 22.0502ZM93.9218 11.0513H89.445V23.4563H91.3124V18.7567H93.9208C95.9916 18.7567 98.0273 17.2712 98.0273 14.9045C98.0273 12.5378 95.9926 11.0513 93.9218 11.0513ZM93.9699 17.03H91.3124V12.778H93.9699C95.3667 12.778 96.1598 13.9241 96.1598 14.9045C96.1598 15.8651 95.3667 17.03 93.9699 17.03ZM105.517 15.2488C104.164 15.2488 102.763 15.8393 102.184 17.1481L103.843 17.8348C104.197 17.1481 104.857 16.9249 105.55 16.9249C106.516 16.9249 107.499 17.4994 107.515 18.5205V18.6485C107.176 18.457 106.451 18.1692 105.566 18.1692C103.779 18.1692 101.958 19.1427 101.958 20.9626C101.958 22.6228 103.424 23.6915 105.067 23.6915C106.323 23.6915 107.015 23.1328 107.45 22.4789H107.514V23.4365H109.317V18.6803C109.317 16.4773 107.659 15.2488 105.517 15.2488ZM105.291 22.0472C104.679 22.0472 103.825 21.7436 103.825 20.9944C103.825 20.0368 104.888 19.6696 105.805 19.6696C106.627 19.6696 107.013 19.8453 107.513 20.0844C107.369 21.2335 106.37 22.0472 105.291 22.0472ZM115.888 15.5197L113.746 20.8981H113.682L111.46 15.5197H109.447L112.781 23.0365L110.88 27.2182H112.829L117.966 15.5197H115.888ZM99.0586 23.4563H100.927V11.0513H99.0586V23.4563Z" fill="black"/>
<path d="M39.4191 3.40253H36.5073V4.11799H38.6891C38.6301 4.69949 38.3948 5.15695 38.0012 5.48938C37.6067 5.8218 37.1031 5.98851 36.5073 5.98851C35.8524 5.98851 35.2987 5.76425 34.8461 5.31473C34.4015 4.85727 34.1742 4.29264 34.1742 3.60993C34.1742 2.9282 34.4015 2.36258 34.8461 1.90512C35.2987 1.45659 35.8524 1.23233 36.5073 1.23233C36.8427 1.23233 37.1621 1.28989 37.4555 1.41492C37.7489 1.53995 37.9842 1.7146 38.1685 1.93886L38.7222 1.39011C38.4709 1.1073 38.1514 0.890973 37.7579 0.733195C37.3634 0.575416 36.9519 0.5 36.5073 0.5C35.6341 0.5 34.8961 0.79968 34.2924 1.39805C33.6876 1.99741 33.3862 2.73669 33.3862 3.60993C33.3862 4.48317 33.6876 5.22344 34.2924 5.82181C34.8961 6.42117 35.6341 6.71985 36.5073 6.71985C37.4215 6.71985 38.1514 6.4291 38.7142 5.83867C39.2088 5.34847 39.4612 4.68262 39.4612 3.85106C39.4612 3.71015 39.4441 3.56031 39.4191 3.40253Z" fill="black"/>
<path d="M40.5686 0.632973V6.58689H44.0763V5.85555H41.3407V3.96816H43.8069V3.25269H41.3407V1.3653H44.0763V0.632973H40.5686Z" fill="black"/>
<path d="M49.0087 1.3653V0.632973H44.8803V1.3653H46.5585V6.58689H47.3305V1.3653H49.0087Z" fill="black"/>
<path d="M52.7686 0.632973H51.9966V6.58689H52.7686V0.632973Z" fill="black"/>
<path d="M57.8704 1.3653V0.632973H53.7419V1.3653H55.4201V6.58689H56.1922V1.3653H57.8704Z" fill="black"/>
<path d="M65.6827 1.40698C65.0869 0.79968 64.3569 0.5 63.4838 0.5C62.6116 0.5 61.8807 0.79968 61.2849 1.39805C60.6891 1.98848 60.3957 2.72875 60.3957 3.60993C60.3957 4.4921 60.6891 5.23138 61.2849 5.82181C61.8807 6.42117 62.6116 6.71985 63.4838 6.71985C64.3479 6.71985 65.0869 6.42117 65.6827 5.82181C66.2785 5.23138 66.5718 4.4921 66.5718 3.60993C66.5718 2.73669 66.2785 1.99741 65.6827 1.40698ZM61.8396 1.90512C62.2842 1.45659 62.8289 1.23233 63.4838 1.23233C64.1386 1.23233 64.6834 1.45659 65.1199 1.90512C65.5645 2.3467 65.7828 2.92027 65.7828 3.60993C65.7828 4.30058 65.5645 4.87414 65.1199 5.31473C64.6834 5.76425 64.1386 5.98851 63.4838 5.98851C62.8289 5.98851 62.2842 5.76425 61.8396 5.31473C61.403 4.8662 61.1848 4.30058 61.1848 3.60993C61.1848 2.92027 61.403 2.35464 61.8396 1.90512Z" fill="black"/>
<path d="M68.4263 2.87859L68.3932 1.73048H68.4263L71.4813 6.58689H72.2864V0.632973H71.5144V4.118L71.5484 5.26512H71.5144L68.5945 0.632973H67.6553V6.58689H68.4263V2.87859Z" fill="black"/>
</svg>
