<svg width="50" height="50" viewBox="0 0 50 50" fill="none" xmlns="http://www.w3.org/2000/svg">
<g clip-path="url(#clip0_1235_15828)">
<circle cx="25" cy="25" r="24.6875" stroke="url(#paint0_linear_1235_15828)" stroke-width="0.625"/>
<path fill-rule="evenodd" clip-rule="evenodd" d="M18.6724 6.40625L16.5336 11.0368C14.3256 15.817 10.8205 19.8806 6.41827 22.7659C6.3751 22.7942 6.33183 22.8223 6.28849 22.8505L2.96924 25H9.77855C13.4134 22.35 16.4435 18.9627 18.6724 15.0639C20.9013 18.9627 23.9313 22.35 27.5661 25C26.8538 25.5194 26.1646 26.0672 25.5 26.6416C26.4311 27.4831 27.3108 28.3783 28.135 29.322C29.0185 28.5716 29.9503 27.8738 30.9264 27.2341C30.9695 27.2058 31.0128 27.1777 31.0563 27.1495L34.3755 25L31.0563 22.8505C31.0128 22.8223 30.9695 22.7942 30.9264 22.7659C26.5242 19.8806 23.0192 15.817 20.8111 11.0368L18.6724 6.40625ZM31.3286 43.5955L33.4674 38.9648C35.6755 34.1847 39.1805 30.1211 43.5827 27.2358C43.626 27.2075 43.6691 27.1794 43.7125 27.1513L47.0317 25.0017H40.2224C36.5875 27.6517 33.5575 31.0391 31.3286 34.9378C29.0997 31.0391 26.0697 27.6517 22.4349 25.0017C23.1472 24.4823 23.8364 23.9345 24.501 23.3602C23.5699 22.5186 22.6902 21.6234 21.866 20.6797C20.9825 21.4302 20.0506 22.128 19.0746 22.7677C19.0314 22.7959 18.9881 22.8241 18.9447 22.8522L15.6255 25.0017L18.9447 27.1513L19.0078 27.1922L19.0746 27.2358C23.4767 30.1211 26.9817 34.1847 29.1899 38.9648L31.3286 43.5955ZM34.2975 6.40625L35.1337 8.20522C35.5076 9.00952 36.1022 9.69123 36.848 10.1712L38.2819 11.0938L36.848 12.0163C36.1022 12.4963 35.5076 13.178 35.1337 13.9823L34.2975 15.7812L33.4612 13.9823C33.0873 13.178 32.4928 12.4963 31.747 12.0163L30.3131 11.0938L31.747 10.1712C32.4928 9.69123 33.0873 9.00952 33.4612 8.20522L34.2975 6.40625ZM16.3837 36.0177L15.5475 34.2188L14.7112 36.0177C14.3373 36.822 13.7428 37.5037 12.997 37.9836L11.5631 38.9062L12.997 39.8289C13.7428 40.3088 14.3373 40.9905 14.7112 41.7948L15.5475 43.5938L16.3837 41.7948C16.7576 40.9905 17.3522 40.3088 18.098 39.8289L19.5319 38.9062L18.098 37.9836C17.3522 37.5037 16.7576 36.822 16.3837 36.0177Z" fill="url(#paint1_linear_1235_15828)"/>
</g>
<defs>
<linearGradient id="paint0_linear_1235_15828" x1="42.5703" y1="6.00929" x2="12.4446" y2="46.513" gradientUnits="userSpaceOnUse">
<stop stop-color="#751AFF"/>
<stop offset="0.985" stop-color="#0ACFFE"/>
</linearGradient>
<linearGradient id="paint1_linear_1235_15828" x1="31.4722" y1="9.12392" x2="22.5449" y2="41.559" gradientUnits="userSpaceOnUse">
<stop offset="0.015" stop-color="#0ACFFE"/>
<stop offset="1" stop-color="#751AFF"/>
</linearGradient>
<clipPath id="clip0_1235_15828">
<rect width="50" height="50" fill="white"/>
</clipPath>
</defs>
</svg>
