<svg width="24" height="24" viewBox="0 0 24 24" fill="none" xmlns="http://www.w3.org/2000/svg">
<path fill-rule="evenodd" clip-rule="evenodd" d="M20 8C20.5523 8 21 7.55228 21 7C21 6.44772 20.5523 6 20 6H4C3.44772 6 3 6.44772 3 7C3 7.55228 3.44772 8 4 8H20ZM21 12C21 12.5523 20.5523 13 20 13H8C7.44772 13 7 12.5523 7 12C7 11.4477 7.44772 11 8 11H20C20.5523 11 21 11.4477 21 12ZM21 17C21 17.5523 20.5523 18 20 18H12C11.4477 18 11 17.5523 11 17C11 16.4477 11.4477 16 12 16H20C20.5523 16 21 16.4477 21 17Z" fill="white"/>
</svg>
